# xmcd
#
# Track frame offsets:
#	150
#	13177
#	28344
#	43882
#	57696
#	68270
#	81345
#	93001
#	103932
#	116654
#
# Disc length: 2082 seconds
#
# Revision: 2
# Processed by: cddbd v1.5.2PL0 Copyright (c) Steve Scherf et al.
# Submitted via: audiograbber 1.83.01
#
DISCID=8708200a
DTITLE=SternhagelBairisch - Songs
DYEAR=2004
DGENRE=Folklore
TTITLE0=Münchner Arschloch
TTITLE1=Monaco-Ballade
TTITLE2=Zefix, es war nix
TTITLE3=Der kleine Musikant
TTITLE4=Socken-Song
TTITLE5=Münchner Anmache
TTITLE6=Schachlied
TTITLE7=Radl-Rambo
TTITLE8=Draußen sein is besser
TTITLE9=Komm zu mir
EXTD=
EXTT0=
EXTT1=
EXTT2=
EXTT3=
EXTT4=
EXTT5=
EXTT6=
EXTT7=
EXTT8=
EXTT9=
PLAYORDER=
